HIERARCHY
ROOT Hips
{
	OFFSET -0.001795 -0.223333 0.028219
	CHANNELS 6 Xposition Yposition Zposition Zrotation Yrotation Xrotation 
	JOINT LeftUpLeg
	{
		OFFSET 0.069520 -0.091406 -0.006815
		CHANNELS 3 Zrotation Yrotation Xrotation
		JOINT LeftLeg
		{
			OFFSET 0.034277 -0.375199 -0.004496
			CHANNELS 3 Zrotation Yrotation Xrotation
			JOINT LeftFoot
			{
				OFFSET -0.013596 -0.397961 -0.043693
				CHANNELS 3 Zrotation Yrotation Xrotation
				JOINT LeftToe
				{
					OFFSET 0.026358 -0.055791 0.119288
					CHANNELS 3 Zrotation Yrotation Xrotation
					End Site
					{
						OFFSET 0.000000 0.000000 0.000000
					}
				}
			}
		}
	}
	JOINT RightUpLeg
	{
		OFFSET -0.067670 -0.090522 -0.004320
		CHANNELS 3 Zrotation Yrotation Xrotation
		JOINT RightLeg
		{
			OFFSET -0.038290 -0.382569 -0.008850
			CHANNELS 3 Zrotation Yrotation Xrotation
			JOINT RightFoot
			{
				OFFSET 0.015774 -0.398415 -0.042312
				CHANNELS 3 Zrotation Yrotation Xrotation
				JOINT RightToe
				{
					OFFSET -0.025372 -0.048144 0.123348
					CHANNELS 3 Zrotation Yrotation Xrotation
					End Site
					{
						OFFSET 0.000000 0.000000 0.000000
					}
				}
			}
		}
	}
	JOINT Spine
	{
		OFFSET -0.002533 0.108963 -0.026696
		CHANNELS 3 Zrotation Yrotation Xrotation
		JOINT Spine1
		{
			OFFSET 0.005487 0.135180 0.001092
			CHANNELS 3 Zrotation Yrotation Xrotation
			JOINT Spine2
			{
				OFFSET 0.001457 0.052922 0.025425
				CHANNELS 3 Zrotation Yrotation Xrotation
				JOINT Neck
				{
					OFFSET -0.002778 0.213870 -0.042857
					CHANNELS 3 Zrotation Yrotation Xrotation
					JOINT Head
					{
						OFFSET 0.005152 0.064970 0.051349
						CHANNELS 3 Zrotation Yrotation Xrotation
						End Site
						{
							OFFSET 0.000000 0.000000 0.000000
						}
					}
				}
				JOINT LeftShoulder
				{
					OFFSET 0.078845 0.121749 -0.034090
					CHANNELS 3 Zrotation Yrotation Xrotation
					JOINT LeftArm
					{
						OFFSET 0.090977 0.030469 -0.008868
						CHANNELS 3 Zrotation Yrotation Xrotation
						JOINT LeftForeArm
						{
							OFFSET 0.259612 -0.012772 -0.027456
							CHANNELS 3 Zrotation Yrotation Xrotation
							JOINT LeftHand
							{
								OFFSET 0.249234 0.008986 -0.001171
								CHANNELS 3 Zrotation Yrotation Xrotation
								End Site
								{
									OFFSET 0.000000 0.000000 0.000000
								}
							}
						}
					}
				}
				JOINT RightShoulder
				{
					OFFSET -0.081759 0.118833 -0.038615
					CHANNELS 3 Zrotation Yrotation Xrotation
					JOINT RightArm
					{
						OFFSET -0.096012 0.032551 -0.009143
						CHANNELS 3 Zrotation Yrotation Xrotation
						JOINT RightForeArm
						{
							OFFSET -0.253742 -0.013329 -0.021401
							CHANNELS 3 Zrotation Yrotation Xrotation
							JOINT RightHand
							{
								OFFSET -0.255298 0.007772 -0.005559
								CHANNELS 3 Zrotation Yrotation Xrotation
								End Site
								{
									OFFSET 0.000000 0.000000 0.000000
								}
							}
						}
					}
				}
			}
		}
	}
}
MOTION
Frames: 16
Frame Time: 0.050000
0.000000 0.925044 0.000000 -1.010777 -17.521434 -3.292412 4.081906 -0.402452 -19.133008 -6.869704 1.686106 10.702064 12.057401 21.116787 18.887519 0.000000 0.000000 0.000000 3.274677 -0.890668 8.087792 2.245030 -0.052106 3.532355 -6.261436 -14.263142 0.704190 0.000000 0.000000 0.000000 1.723459 -0.249353 5.093704 -6.127692 2.805624 -2.204035 3.012336 8.189066 9.631759 4.895412 -1.500057 -21.228343 0.000000 0.000000 0.000000 -29.431973 -3.893099 0.466239 -45.357274 -2.975504 -4.936272 0.993215 -21.084370 0.725073 0.000000 0.000000 0.000000 22.644514 8.437608 2.288187 48.929064 12.981491 0.097995 2.135479 29.790706 1.477992 0.000000 0.000000 0.000000 
-0.011162 0.922833 0.030317 -1.619704 -19.244026 -2.432361 3.982905 -0.355864 -18.375539 -4.980476 1.289054 11.279787 11.254102 20.225373 15.895768 0.000000 0.000000 0.000000 4.461091 -1.113184 9.421365 0.627141 0.114698 3.569493 -5.727142 -12.849361 0.431790 0.000000 0.000000 0.000000 1.273537 -0.184750 3.770278 -6.097629 2.658931 -3.478155 3.856412 8.758892 10.402238 4.814611 -1.270527 -23.751885 0.000000 0.000000 0.000000 -30.294968 -3.774362 0.685074 -46.283138 -1.976486 -5.541354 2.303070 -22.757145 0.579824 0.000000 0.000000 0.000000 21.292701 8.296039 2.060815 49.320088 13.641241 0.360128 0.307072 35.514985 1.191544 0.000000 0.000000 0.000000 
-0.020581 0.919571 0.062916 -1.395284 -19.715704 -2.217215 2.231013 -0.692964 -17.530313 -2.505782 0.766051 13.466788 15.510289 25.898974 18.504876 0.000000 0.000000 0.000000 2.867454 -1.005056 10.756980 2.450961 0.022320 5.619511 -5.286141 -11.099445 -1.293165 0.000000 0.000000 0.000000 1.007512 -0.137390 2.761376 -5.996829 2.530791 -4.324156 2.360115 8.684018 10.856665 6.141697 -2.359382 -21.071510 0.000000 0.000000 0.000000 -29.235483 -4.013178 0.989530 -47.251707 -2.164166 -5.637468 3.339591 -20.020715 0.336138 0.000000 0.000000 0.000000 22.246484 8.581851 2.145358 48.549314 15.928357 1.220985 -3.962180 38.065948 -0.112467 0.000000 0.000000 0.000000 
-0.027837 0.919127 0.096806 -1.054933 -20.082276 -3.022284 1.802793 -0.724587 -15.220045 -2.903304 0.999157 14.999099 15.908584 27.225818 15.785174 0.000000 0.000000 0.000000 1.993981 -0.861866 10.599414 2.818244 0.317448 12.024817 -5.193020 -10.989470 -1.144916 0.000000 0.000000 0.000000 0.285035 -0.064617 1.383041 -6.970315 2.987851 -4.245489 3.795730 7.689475 12.278156 4.743130 -1.770270 -21.092349 0.000000 0.000000 0.000000 -30.047778 -4.209994 1.774624 -47.009214 -3.285015 -5.498055 4.391429 -18.834902 0.196656 0.000000 0.000000 0.000000 20.249545 10.856206 3.061912 46.650006 18.799292 2.226162 -9.194582 41.600008 -2.225522 0.000000 0.000000 0.000000 
-0.031739 0.922641 0.129975 -0.621006 -19.673006 -3.801719 0.156915 -0.919143 -12.837696 -1.856591 0.732814 15.946999 15.815227 27.560222 14.657340 0.000000 0.000000 0.000000 -0.848777 -0.349938 7.112181 6.464579 0.350327 23.619019 -3.890461 -10.364781 3.035881 0.000000 0.000000 0.000000 -0.642343 -0.041646 1.064742 -5.929447 2.444821 -5.085177 2.694088 7.502642 12.901564 5.927434 -2.615046 -19.876601 0.000000 0.000000 0.000000 -30.147755 -5.336489 2.576087 -46.767023 -2.893111 -5.713592 3.345719 -19.726551 0.377737 0.000000 0.000000 0.000000 20.789850 10.778868 3.056289 42.356245 22.052172 2.952329 -16.093642 48.949799 -5.796370 0.000000 0.000000 0.000000 
-0.032685 0.927058 0.160650 -0.051422 -20.656580 -4.282733 -0.743477 -0.871555 -9.964333 -2.413926 0.892875 15.052239 16.382881 28.532596 14.701529 0.000000 0.000000 0.000000 -4.958251 0.297446 0.361061 11.510977 -0.065019 37.634854 -1.343975 -9.601633 12.988513 0.000000 0.000000 0.000000 -0.692909 -0.024545 0.550700 -5.861064 2.438979 -4.642977 2.241991 7.496706 12.500419 5.321097 -2.391221 -19.018882 0.000000 0.000000 0.000000 -30.186395 -6.443805 3.494423 -47.890325 -2.440849 -6.028301 1.996396 -22.282299 0.701564 0.000000 0.000000 0.000000 18.653341 13.343122 4.349267 39.097683 25.582839 3.745863 -37.498082 55.389203 -18.312203 0.000000 0.000000 0.000000 
-0.033055 0.929964 0.188763 -0.184932 -19.483400 -4.516206 -1.820525 -0.794176 -7.350334 -1.543677 0.532985 14.060226 15.738823 28.148561 13.396304 0.000000 0.000000 0.000000 -8.613096 0.619073 -4.383868 16.007065 -1.753780 45.653218 -0.995738 -10.123605 17.470221 0.000000 0.000000 0.000000 -0.003018 -0.032309 0.668632 -5.824113 2.460395 -4.372329 1.862511 6.483964 11.196087 5.754638 -2.728441 -18.313540 0.000000 0.000000 0.000000 -29.701803 -6.746691 3.680825 -48.449899 -1.800333 -6.224634 -0.308935 -25.357991 1.312854 0.000000 0.000000 0.000000 15.456313 13.636145 4.442755 35.396262 31.763531 4.977435 -61.871938 55.588389 -32.952879 0.000000 0.000000 0.000000 
-0.034286 0.932112 0.213959 0.132521 -18.898244 -3.883926 -2.818629 -0.730385 -5.838918 -1.249146 0.375729 12.774515 15.423499 27.974421 12.773891 0.000000 0.000000 0.000000 -10.240238 0.753115 -7.999826 15.704221 -1.777121 45.203963 -3.857590 -12.368928 8.145435 0.000000 0.000000 0.000000 0.635333 0.033752 -0.697772 -6.056326 2.617225 -3.828885 1.426454 6.411421 10.450468 5.624996 -2.686692 -17.415105 0.000000 0.000000 0.000000 -29.578996 -7.344034 3.879649 -48.017737 -2.270372 -5.875106 -1.910612 -26.125987 1.688499 0.000000 0.000000 0.000000 12.521162 15.065548 5.200447 29.219048 37.529954 4.984036 -76.642735 47.578045 -36.022403 0.000000 0.000000 0.000000 
-0.037062 0.934720 0.235688 0.281810 -17.735574 -3.691505 -3.716994 -0.604641 -4.229242 -0.404268 0.093703 11.910914 14.764810 27.141699 12.457491 0.000000 0.000000 0.000000 -9.034568 0.728618 -8.422383 11.182419 -0.459481 36.518430 -5.291267 -10.877564 -4.275702 0.000000 0.000000 0.000000 0.564495 0.054332 -1.107403 -5.902067 2.531830 -4.140324 1.403149 6.572156 10.501940 6.513562 -3.000900 -18.581223 0.000000 0.000000 0.000000 -28.399583 -7.974777 3.950850 -49.193627 -2.457066 -5.814159 -1.366189 -28.221736 1.687834 0.000000 0.000000 0.000000 9.581328 16.564335 5.929440 22.909991 43.563646 4.272676 -86.737995 38.992126 -34.181617 0.000000 0.000000 0.000000 
-0.041652 0.936316 0.254133 0.312952 -16.865445 -3.445402 -3.908617 -0.392027 -2.477982 -0.150572 -0.016319 10.486951 14.172618 26.429279 11.963549 0.000000 0.000000 0.000000 -7.296387 0.706693 -8.170107 6.879700 0.215227 25.589819 -3.873549 -7.964910 -2.569671 0.000000 0.000000 0.000000 1.071940 0.094122 -1.689662 -6.535428 2.814405 -4.354047 1.399447 7.176920 10.187217 7.509688 -3.595544 -17.681403 0.000000 0.000000 0.000000 -27.743690 -8.150199 3.619529 -49.853961 -3.227618 -5.423827 -0.963553 -28.923138 1.590824 0.000000 0.000000 0.000000 7.314452 18.647490 6.839552 14.517840 46.867985 1.882828 -91.746187 30.825563 -28.599636 0.000000 0.000000 0.000000 
-0.047572 0.937774 0.269476 0.514234 -14.586588 -3.149041 -3.528657 -0.176325 -0.977936 -0.645349 0.035716 8.902702 12.735302 24.423036 10.911537 0.000000 0.000000 0.000000 -6.762398 0.609464 -6.796332 6.213639 -0.154518 18.276462 -3.144665 -10.076410 5.360993 0.000000 0.000000 0.000000 1.033792 0.112433 -2.044950 -6.909209 3.092507 -3.355631 0.922026 7.042933 8.762514 8.475493 -3.937126 -18.039642 0.000000 0.000000 0.000000 -26.923850 -8.722849 3.392867 -50.057135 -3.211074 -5.163833 -0.280758 -28.832592 1.321015 0.000000 0.000000 0.000000 6.101827 19.163620 7.117664 6.829949 49.312801 -0.706871 -95.109431 24.901382 -23.634128 0.000000 0.000000 0.000000 
-0.054010 0.938819 0.281795 0.373252 -12.481219 -3.163359 -2.760435 -0.078429 -0.370574 -0.948047 0.067593 9.328473 11.556407 22.642672 10.213779 0.000000 0.000000 0.000000 -6.088657 0.480876 -4.809273 6.661685 -0.438053 15.481478 -5.383068 -15.232079 8.254369 0.000000 0.000000 0.000000 0.847691 0.103907 -1.976094 -6.599131 2.993125 -2.970758 0.397850 7.701024 8.290326 10.098770 -4.763784 -17.711253 0.000000 0.000000 0.000000 -27.024098 -9.834162 3.332321 -49.359478 -3.140592 -4.877445 0.694499 -28.353439 0.937817 0.000000 0.000000 0.000000 6.492591 18.803871 7.259966 0.010772 49.313344 -3.132885 -97.062580 22.604687 -21.383641 0.000000 0.000000 0.000000 
-0.060124 0.938878 0.291351 0.392836 -10.850397 -2.853876 -2.209124 0.000150 0.175720 -1.141639 0.079158 8.851808 10.647464 21.262081 9.488322 0.000000 0.000000 0.000000 -5.936063 0.432545 -4.152625 7.823955 -0.751119 15.182960 -7.270855 -18.671822 8.647898 0.000000 0.000000 0.000000 0.608104 0.109128 -2.188488 -6.363472 2.904043 -2.797920 -0.244784 7.649577 7.543148 10.254509 -5.173141 -15.414920 0.000000 0.000000 0.000000 -25.612904 -9.642504 2.836122 -50.078361 -3.386951 -4.695079 1.402914 -26.557858 0.653786 0.000000 0.000000 0.000000 4.759378 19.900998 7.604790 -0.573858 47.844992 -3.110265 -98.748939 21.238814 -20.148952 0.000000 0.000000 0.000000 
-0.065590 0.938699 0.298671 0.329754 -9.943413 -2.402580 -1.772388 0.045179 0.507930 -1.107630 0.056802 8.284204 10.151710 20.494785 9.052469 0.000000 0.000000 0.000000 -5.188546 0.374431 -3.310427 7.249308 -0.684016 14.059102 -7.727044 -19.418728 8.365634 0.000000 0.000000 0.000000 0.696117 0.131391 -2.596757 -6.078345 2.783838 -2.650512 -0.697086 8.065682 7.762490 10.995750 -5.232378 -17.007972 0.000000 0.000000 0.000000 -25.824444 -10.839092 3.207216 -50.045527 -3.083307 -4.716711 3.539649 -25.894584 0.106791 0.000000 0.000000 0.000000 5.715558 19.407935 7.662804 -1.830524 47.372154 -3.464152 -101.037447 22.355670 -21.924546 0.000000 0.000000 0.000000 
-0.070109 0.937997 0.304040 0.319060 -9.681072 -2.215506 -1.339720 0.072307 0.730667 -1.354199 0.103758 8.223386 9.998326 20.269849 8.760323 0.000000 0.000000 0.000000 -5.191832 0.339663 -2.642591 7.715272 -0.787129 13.299989 -7.847069 -19.572934 7.968749 0.000000 0.000000 0.000000 0.951011 0.150099 -2.838821 -6.592613 3.033057 -2.546780 0.014936 7.733549 8.135321 10.487379 -4.970380 -16.952769 0.000000 0.000000 0.000000 -26.770476 -10.301505 2.987732 -49.432750 -3.259402 -4.631289 3.867519 -24.423447 0.053394 0.000000 0.000000 0.000000 5.544361 19.336472 7.571616 -0.742581 47.642689 -3.132154 -103.395736 22.593255 -23.193070 0.000000 0.000000 0.000000 
-0.073800 0.937224 0.308399 0.233224 -9.064086 -1.948007 -0.966366 0.116354 1.125820 -1.347351 0.094439 7.555282 9.670610 19.768095 8.234577 0.000000 0.000000 0.000000 -4.864715 0.313698 -2.348739 7.769509 -0.822019 13.008027 -8.166522 -20.121704 7.765738 0.000000 0.000000 0.000000 0.866172 0.151484 -2.924517 -6.434255 2.945483 -2.765165 0.325311 7.502162 8.666524 9.967966 -4.881066 -15.820611 0.000000 0.000000 0.000000 -27.440053 -10.105920 2.860604 -49.048561 -2.895045 -4.766288 4.184313 -24.062969 -0.007558 0.000000 0.000000 0.000000 6.119593 19.386225 7.683582 0.200877 47.410616 -2.805407 -105.456598 22.892858 -24.372573 0.000000 0.000000 0.000000 
